<?xml version="1.0" encoding="utf-8" ?><svg xmlns="http://www.w3.org/2000/svg" xmlns:xlink="http://www.w3.org/1999/xlink" width="192" height="192" viewBox="0 0 192 192"><path fill="#010002" d="M93.814 31.585C96.2672 31.6315 98.6314 32.4953 100.814 33.5532C103.641 34.9232 106.229 36.7252 108.884 38.3922L121.402 46.1543C126.806 49.4443 132.305 52.5736 137.702 55.8809C140.466 57.575 143.338 59.216 145.886 61.23C148.736 63.4828 151.157 66.5147 151.574 70.2433C151.95 73.603 151.688 77.2045 151.683 80.5984L151.604 101.681C151.594 106.831 151.616 111.981 151.669 117.131C151.696 120.202 151.934 123.441 151.562 126.489C151.317 128.496 150.578 130.443 149.295 132.017C148.355 133.17 147.205 134.137 145.974 134.965C138.751 139.822 130.855 143.87 123.431 148.441C118.913 151.248 114.412 154.082 109.928 156.943C107.19 158.676 104.455 160.555 101.556 162.01C98.9412 163.323 96.3406 164.211 93.4256 164.5C91.0044 164.509 88.6865 163.661 86.5396 162.603C83.6561 161.182 80.945 159.31 78.2248 157.598C73.6623 154.704 69.0816 151.839 64.483 149.002C60.018 146.281 55.5368 143.587 51.0394 140.919C47.4036 138.769 43.5373 136.725 40.2596 134.042C37.4932 131.778 35.7887 129.376 35.4224 125.767C34.9479 121.092 35.1082 116.33 35.0995 111.636L35.0978 90.3005L35.1612 77.7308C35.1793 75.3885 35.0141 72.8038 35.4215 70.4973C35.8317 68.1745 37.0167 66.0784 38.5019 64.2735C39.4443 63.1282 40.4973 62.238 41.7166 61.3988C50.6353 55.2602 60.3202 49.9671 69.5461 44.2779C75.3008 40.7291 80.9381 36.3547 86.997 33.378C89.3236 32.2349 91.2366 31.8249 93.814 31.585ZM94.4585 163.028C96.7663 162.632 98.8427 162.003 100.938 160.942C107.372 157.685 113.487 153.304 119.669 149.556L137.419 138.813C139.739 137.385 142.159 136.05 144.403 134.51C145.901 133.482 147.815 132.106 148.87 130.609C149.808 129.278 150.43 127.542 150.642 125.932C151.518 119.25 150.98 109.747 151.024 102.703C151.07 95.4315 151.184 88.1728 151.103 80.8998C151.063 77.3791 151.259 73.5983 150.611 70.1361C149.822 65.9171 146.867 62.7483 143.406 60.4224C140.823 58.686 138.049 57.2231 135.394 55.5969L117.642 44.7095C111.759 41.1495 105.902 36.9136 99.6562 34.0515C97.6153 33.1163 95.4395 32.3462 93.1617 32.5509C90.9618 32.9171 88.8958 33.4885 86.9014 34.5062C80.579 37.7322 74.6904 42.193 68.6191 45.887L51.1528 56.5481C48.1627 58.3456 44.9818 59.9432 42.1181 61.934C40.6285 62.9695 39.2953 64.2026 38.2326 65.6784C36.887 67.5471 36.2834 69.6461 36.0145 71.9157C35.5203 76.087 35.7718 80.4579 35.7808 84.6522C35.7748 92.1607 35.8247 99.6691 35.9304 107.177C35.9837 112.661 35.3372 119.805 36.2108 125.028C36.945 129.418 39.7571 132.316 43.2852 134.806C50.7298 140.06 59.1054 144.302 66.8994 149.036C73.2474 152.892 81.0351 158.573 87.5895 161.541C89.8141 162.548 92.0107 163.091 94.4585 163.028Z"/><path fill="#F548D3" d="M93.1617 32.5509C95.4395 32.3462 97.6153 33.1163 99.6562 34.0515C105.902 36.9136 111.759 41.1495 117.642 44.7095L135.394 55.5969C138.049 57.2231 140.823 58.686 143.406 60.4224C146.867 62.7483 149.822 65.9171 150.611 70.1361C151.259 73.5983 151.063 77.3791 151.103 80.8998C151.184 88.1728 151.07 95.4315 151.024 102.703C150.98 109.747 151.518 119.25 150.642 125.932C150.43 127.542 149.808 129.278 148.87 130.609C147.815 132.106 145.901 133.482 144.403 134.51C142.159 136.05 139.739 137.385 137.419 138.813L119.669 149.556C113.487 153.304 107.372 157.685 100.938 160.942C98.8427 162.003 96.7663 162.632 94.4585 163.028C92.0107 163.091 89.8141 162.548 87.5895 161.541C81.0351 158.573 73.2474 152.892 66.8994 149.036C59.1054 144.302 50.7298 140.06 43.2852 134.806C39.7571 132.316 36.945 129.418 36.2108 125.028C35.3372 119.805 35.9837 112.661 35.9304 107.177C35.8247 99.6691 35.7748 92.1607 35.7808 84.6522C35.7718 80.4579 35.5203 76.087 36.0145 71.9157C36.2834 69.6461 36.887 67.5471 38.2326 65.6784C39.2953 64.2026 40.6285 62.9695 42.1181 61.934C44.9818 59.9432 48.1627 58.3456 51.1528 56.5481L68.6191 45.887C74.6904 42.193 80.579 37.7322 86.9014 34.5062C88.8958 33.4885 90.9618 32.9171 93.1617 32.5509ZM145 72.807C145.093 84.6108 145.11 96.4151 145.052 108.219C145.041 113.315 145.561 120.423 144.649 125.308C144.449 126.375 143.921 126.959 143.187 127.707C139.971 130.986 135.143 133.348 131.23 135.719L115.722 145.123C110.415 148.331 105.239 151.951 99.718 154.777C98.0316 155.641 95.8422 156.747 93.9121 156.756C89.8382 156.775 86.0036 154.123 82.6456 152.095C74.3699 146.61 65.6505 141.667 57.1602 136.51C52.8638 133.9 47.81 131.445 44.2176 127.911C41.6121 125.349 41.926 122.293 41.9117 118.929C41.4114 118.118 41.6593 116.398 41.579 115.388C41.4061 113.212 40.997 111.059 40.9022 108.875C40.7604 105.605 40.9258 102.282 40.9444 99.0082C40.9941 90.2333 41.2038 81.39 40.9612 72.6225C41.2108 70.7403 42.0886 69.2364 43.3445 67.8575C46.7125 64.1594 61.5669 55.9521 66.6356 52.7934C73.9147 48.2571 81.1437 43.1024 88.745 39.1637C90.1114 38.4556 91.6999 37.8423 93.2534 37.7843C95.3481 37.7061 97.8959 38.9207 99.7273 39.848C105.82 42.9328 111.615 47.1512 117.455 50.7277C126.318 56.1556 138.28 62.0336 145.637 69.0193C144.887 67.4213 144.047 66.0479 142.645 64.9374C136.979 60.4491 129.323 56.6609 123.046 52.8191C118.471 50.0154 113.912 47.1854 109.37 44.3293C105.581 41.9418 101.555 39.0095 97.3324 37.4746C94.2661 36.3602 92.0861 36.508 89.1591 37.8823C82.5982 40.9628 75.1047 46.6896 68.6988 50.6312L52.6343 60.3013C49.3802 62.2567 45.7495 64.1547 42.8506 66.6149C41.6194 67.6598 40.9934 69.26 40.46 70.7371C40.065 72.6285 40.2125 74.8062 40.2507 76.7371C39.9849 77.2689 39.6786 77.8095 39.4681 78.3641L39.3718 107.807C39.3312 112.245 38.6753 121.048 39.5081 125.06C39.8982 126.939 41.0112 128.628 42.337 129.985C45.8506 133.583 51.1828 136.044 55.5314 138.563C58.8912 140.51 62.2241 142.503 65.5292 144.541L75.3554 150.55C76.8404 151.459 78.4295 152.645 80.0082 153.35C83.568 156.05 89.6621 160.626 94.2839 160.178C96.1831 159.994 98.3717 158.937 100.039 158.058C102.797 156.602 105.406 154.785 108.067 153.155C113.325 149.969 118.567 146.757 123.793 143.518C129.734 139.853 136.061 136.575 141.793 132.61C143.483 131.441 145.317 130.04 146.569 128.39C147.516 127.143 147.492 124.869 147.597 123.328C148.206 114.423 147.746 105.177 147.736 96.2427C147.727 88.3811 148.257 77.3773 147.14 69.8476C146.744 70.7643 146.493 72.4199 145.855 73.0755C145.415 73.1001 145.373 73.0512 145 72.807ZM93.4688 42.8102C91.8847 43.0994 90.711 43.7047 89.3117 44.4771C81.63 48.7168 74.3808 53.7545 66.9047 58.3423C62.4179 61.0958 49.6406 67.7032 46.7304 70.8886C45.7791 74.1611 46.325 90.9011 46.3306 95.9191C46.3398 104.159 46.0454 112.526 46.3879 120.754C46.4362 121.914 46.4525 123.939 47.0216 124.973C47.1041 125.122 47.2396 125.219 47.371 125.321C54.7276 131.014 63.4291 135.468 71.355 140.356C77.1637 143.938 82.9613 148.376 89.1288 151.3C90.9503 152.163 92.7218 152.599 94.7327 152.522C96.4733 152.031 97.9562 151.39 99.5423 150.526C105.206 147.442 110.565 143.675 116.103 140.357C123.21 136.1 130.55 132.19 137.507 127.686C138.532 127.022 140.328 125.969 140.991 124.924C141.898 123.495 141.566 75.4283 141.205 71.3401C137.606 67.4977 130.538 63.9246 125.873 61.1376L111.012 52.2003C106.369 49.3833 101.868 46.0365 97.049 43.55C96.1429 43.0789 95.1448 42.8116 94.1246 42.767C93.9041 42.7564 93.6863 42.7741 93.4688 42.8102Z"/><path fill="#F548D3" d="M39.4681 78.3641C39.2928 75.2969 39.0638 71.2884 40.437 68.4612C41.279 66.7275 43.2425 65.3906 44.7885 64.3094C52.6907 58.783 61.4999 54.2254 69.7069 49.1562C74.8753 45.9639 85.9132 37.8526 90.8628 36.1974C93.5202 35.3088 96.0395 35.753 98.5011 36.9833C101.406 38.4351 104.151 40.3543 106.896 42.0919L121.387 51.2226L135.835 59.9535C138.641 61.6556 141.696 63.2905 144.218 65.396C145.729 66.6579 146.521 67.9928 147.14 69.8476C146.744 70.7643 146.493 72.4199 145.855 73.0755C145.415 73.1001 145.373 73.0512 145 72.807C145.093 84.6108 145.11 96.4151 145.052 108.219C145.041 113.315 145.561 120.423 144.649 125.308C144.449 126.375 143.921 126.959 143.187 127.707C139.971 130.986 135.143 133.348 131.23 135.719L115.722 145.123C110.415 148.331 105.239 151.951 99.718 154.777C98.0316 155.641 95.8422 156.747 93.9121 156.756C89.8382 156.775 86.0036 154.123 82.6456 152.095C74.3699 146.61 65.6505 141.667 57.1602 136.51C52.8638 133.9 47.81 131.445 44.2176 127.911C41.6121 125.349 41.926 122.293 41.9117 118.929C41.4114 118.118 41.6593 116.398 41.579 115.388C41.4061 113.212 40.997 111.059 40.9022 108.875C40.7604 105.605 40.9258 102.282 40.9444 99.0082C40.9941 90.2333 41.2038 81.39 40.9612 72.6225C41.2108 70.7403 42.0886 69.2364 43.3445 67.8575C46.7125 64.1594 61.5669 55.9521 66.6356 52.7934C73.9147 48.2571 81.1437 43.1024 88.745 39.1637C90.1114 38.4556 91.6999 37.8423 93.2534 37.7843C95.3481 37.7061 97.8959 38.9207 99.7273 39.848C105.82 42.9328 111.615 47.1512 117.455 50.7277C126.318 56.1556 138.28 62.0336 145.637 69.0193C144.887 67.4213 144.047 66.0479 142.645 64.9374C136.979 60.4491 129.323 56.6609 123.046 52.8191C118.471 50.0154 113.912 47.1854 109.37 44.3293C105.581 41.9418 101.555 39.0095 97.3324 37.4746C94.2661 36.3602 92.0861 36.508 89.1591 37.8823C82.5982 40.9628 75.1047 46.6896 68.6988 50.6312L52.6343 60.3013C49.3802 62.2567 45.7495 64.1547 42.8506 66.6149C41.6194 67.6598 40.9934 69.26 40.46 70.7371C40.065 72.6285 40.2125 74.8062 40.2507 76.7371C39.9849 77.2689 39.6786 77.8095 39.4681 78.3641ZM94.7327 152.522C96.4733 152.031 97.9562 151.39 99.5423 150.526C105.206 147.442 110.565 143.675 116.103 140.357C123.21 136.1 130.55 132.19 137.507 127.686C138.532 127.022 140.328 125.969 140.991 124.924C141.898 123.495 141.566 75.4283 141.205 71.3401C137.606 67.4977 130.538 63.9246 125.873 61.1376L111.012 52.2003C106.369 49.3833 101.868 46.0365 97.049 43.55C96.1429 43.0789 95.1448 42.8116 94.1246 42.767C93.9041 42.7564 93.6863 42.7741 93.4688 42.8102C91.8847 43.0994 90.711 43.7047 89.3117 44.4771C81.63 48.7168 74.3808 53.7545 66.9047 58.3423C62.4179 61.0958 49.6406 67.7032 46.7304 70.8886C45.7791 74.1611 46.325 90.9011 46.3306 95.9191C46.3398 104.159 46.0454 112.526 46.3879 120.754C46.4362 121.914 46.4525 123.939 47.0216 124.973C47.1041 125.122 47.2396 125.219 47.371 125.321C54.7276 131.014 63.4291 135.468 71.355 140.356C77.1637 143.938 82.9613 148.376 89.1288 151.3C90.9503 152.163 92.7218 152.599 94.7327 152.522Z"/><path fill="#010002" d="M39.4681 78.3641C39.2928 75.2969 39.0638 71.2884 40.437 68.4612C41.279 66.7275 43.2425 65.3906 44.7885 64.3094C52.6907 58.783 61.4999 54.2254 69.7069 49.1562C74.8753 45.9639 85.9132 37.8526 90.8628 36.1974C93.5202 35.3088 96.0395 35.753 98.5011 36.9833C101.406 38.4351 104.151 40.3543 106.896 42.0919L121.387 51.2226L135.835 59.9535C138.641 61.6556 141.696 63.2905 144.218 65.396C145.729 66.6579 146.521 67.9928 147.14 69.8476C146.744 70.7643 146.493 72.4199 145.855 73.0755C145.415 73.1001 145.373 73.0512 145 72.807C144.605 69.8317 143.583 67.9505 141.192 66.1067C136.579 62.5503 131.139 60.0483 126.201 56.9775L108.114 45.8437C104.841 43.829 101.569 41.3766 98.0436 39.8432C96.3337 39.0993 94.2715 38.7243 92.416 38.9719C90.5168 39.2253 88.7354 40.0163 87.0686 40.9282C84.3954 42.3906 81.8922 44.2112 79.3244 45.8525L64.213 55.4215C58.84 58.7804 53.0608 61.5647 47.7893 65.0522C46.2317 66.0827 44.574 67.2203 43.4318 68.7237C42.6348 69.7729 42.2919 70.8985 42.1224 72.1847C41.5546 76.4932 41.8953 81.2191 41.8951 85.5722C41.8945 96.6497 42.3251 107.864 41.9117 118.929C41.4114 118.118 41.6593 116.398 41.579 115.388C41.4061 113.212 40.997 111.059 40.9022 108.875C40.7604 105.605 40.9258 102.282 40.9444 99.0082C40.9941 90.2333 41.2038 81.39 40.9612 72.6225C41.2108 70.7403 42.0886 69.2364 43.3445 67.8575C46.7125 64.1594 61.5669 55.9521 66.6356 52.7934C73.9147 48.2571 81.1437 43.1024 88.745 39.1637C90.1114 38.4556 91.6999 37.8423 93.2534 37.7843C95.3481 37.7061 97.8959 38.9207 99.7273 39.848C105.82 42.9328 111.615 47.1512 117.455 50.7277C126.318 56.1556 138.28 62.0336 145.637 69.0193C144.887 67.4213 144.047 66.0479 142.645 64.9374C136.979 60.4491 129.323 56.6609 123.046 52.8191C118.471 50.0154 113.912 47.1854 109.37 44.3293C105.581 41.9418 101.555 39.0095 97.3324 37.4746C94.2661 36.3602 92.0861 36.508 89.1591 37.8823C82.5982 40.9628 75.1047 46.6896 68.6988 50.6312L52.6343 60.3013C49.3802 62.2567 45.7495 64.1547 42.8506 66.6149C41.6194 67.6598 40.9934 69.26 40.46 70.7371C40.065 72.6285 40.2125 74.8062 40.2507 76.7371C39.9849 77.2689 39.6786 77.8095 39.4681 78.3641Z"/><path fill="#010002" d="M92.9925 41.8035C93.0304 41.8013 93.0683 41.7983 93.1063 41.7968C94.9185 41.7255 96.6806 42.4467 98.2612 43.2681C104.239 46.3748 109.749 50.8004 115.485 54.3654C120.795 57.6653 126.269 60.7277 131.642 63.9257C134.985 65.9156 138.607 67.7966 141.443 70.4857C142.289 74.979 141.805 85.5358 141.837 90.6175C141.905 98.3881 141.928 106.159 141.906 113.93C141.888 117.533 142.32 121.891 141.452 125.366C138.484 129.121 122.535 137.485 117.426 140.605C111.05 144.498 104.933 148.792 98.3194 152.295C96.8172 153.091 95.492 153.678 93.8177 154.013C93.476 154.004 93.1387 153.954 92.8028 153.891C90.8975 153.535 89.065 152.472 87.3821 151.539C81.7245 148.403 76.4638 144.566 70.9158 141.242C63.1136 136.566 54.8852 132.342 47.4426 127.113C46.366 126.357 45.575 125.623 44.8229 124.541C44.6934 121.491 44.9168 118.37 44.9289 115.312L45.0105 93.4254C45.0382 86.7773 44.4397 77.4822 45.2091 71.2615C45.2575 71.2006 45.306 71.1396 45.3566 71.0803C46.5748 69.6528 48.0609 68.5956 49.6129 67.5537C52.2719 65.7685 55.1513 64.267 57.9074 62.6346C62.35 59.963 66.7768 57.2653 71.1876 54.5416C77.0131 50.9553 82.6299 46.7953 88.601 43.4922C90.0452 42.6932 91.3541 42.0662 92.9925 41.8035ZM94.7327 152.522C96.4733 152.031 97.9562 151.39 99.5423 150.526C105.206 147.442 110.565 143.675 116.103 140.357C123.21 136.1 130.55 132.19 137.507 127.686C138.532 127.022 140.328 125.969 140.991 124.924C141.898 123.495 141.566 75.4283 141.205 71.3401C137.606 67.4977 130.538 63.9246 125.873 61.1376L111.012 52.2003C106.369 49.3833 101.868 46.0365 97.049 43.55C96.1429 43.0789 95.1448 42.8116 94.1246 42.767C93.9041 42.7564 93.6863 42.7741 93.4688 42.8102C91.8847 43.0994 90.711 43.7047 89.3117 44.4771C81.63 48.7168 74.3808 53.7545 66.9047 58.3423C62.4179 61.0958 49.6406 67.7032 46.7304 70.8886C45.7791 74.1611 46.325 90.9011 46.3306 95.9191C46.3398 104.159 46.0454 112.526 46.3879 120.754C46.4362 121.914 46.4525 123.939 47.0216 124.973C47.1041 125.122 47.2396 125.219 47.371 125.321C54.7276 131.014 63.4291 135.468 71.355 140.356C77.1637 143.938 82.9613 148.376 89.1288 151.3C90.9503 152.163 92.7218 152.599 94.7327 152.522Z"/><path fill="#010002" d="M82.583 64.852C83.3914 64.8182 84.2007 64.81 85.0097 64.8275C87.0701 64.8705 88.9801 65.3988 90.444 66.9428C91.2324 67.7744 91.9993 68.8654 92.1984 70.011C92.6191 72.4308 92.465 75.08 92.4716 77.531L92.4925 89.1116C92.5049 98.8627 92.8791 108.709 92.551 118.445C92.4604 121.132 92.2815 123.203 90.2137 125.112C88.0421 127.116 85.2469 127.824 82.3503 127.696C79.1841 127.556 76.6554 126.649 74.4969 124.287L72.6179 121.131C71.649 120.744 70.6709 120.35 69.7512 119.855C65.1775 117.391 65.1573 112.712 63.4006 108.46C62.6067 106.538 61.3713 104.758 60.7847 102.757C59.6737 98.967 60.7844 95.9329 62.5725 92.6229C62.393 88.5868 61.6877 85.2032 64.6602 82.0243C65.541 81.0824 66.6562 80.0665 67.2278 78.8917C68.2252 76.8417 67.8588 74.8515 69.5086 72.9817C71.5707 70.6445 76.5991 66.4532 79.4065 65.347C80.4153 64.9495 81.5118 64.9129 82.583 64.852ZM63.34 94.0388C61.6977 96.7274 61.0889 98.6818 61.842 101.826C62.275 103.634 63.4118 106.645 65.0952 107.67C65.3915 107.85 65.7372 107.924 66.0786 107.956C65.5301 108.367 65.1776 108.517 65.0559 109.236C64.6987 111.345 67.3806 115.381 68.5961 116.982C70.5398 119.543 72.3103 119.417 73.9825 121.106C74.481 121.97 75.2923 122.843 75.9796 123.565C77.685 125.356 80.0124 126.526 82.5039 126.586C85.157 126.649 88.0938 125.425 90.0044 123.602C90.9559 122.694 91.5834 121.672 91.7919 120.362C92.2813 117.287 92.022 113.923 91.9806 110.815C91.9194 105.428 91.8051 100.043 91.6376 94.6584C91.4057 86.6107 91.5307 78.4621 91.7626 70.4133C90.8616 68.7757 90.0568 67.5095 88.3998 66.5854C86.1395 65.3247 83.2164 65.282 80.7702 65.9814C77.5863 66.8916 71.053 71.6832 69.7064 74.653C69.0425 76.1169 69.5561 78.1763 68.8273 79.5194C68.4382 80.2365 67.6794 80.9116 67.2405 81.706C65.5517 82.9226 63.8564 84.4851 63.5223 86.6316C63.2418 88.434 64.2479 90.6303 64.0576 91.9753C63.9626 92.6468 63.4311 93.2837 63.34 94.0388Z"/><path fill="#750054" d="M67.2405 81.706C67.6794 80.9116 68.4382 80.2365 68.8273 79.5194C69.5561 78.1763 69.0425 76.1169 69.7064 74.653C71.053 71.6832 77.5863 66.8916 80.7702 65.9814C83.2164 65.282 86.1395 65.3247 88.3998 66.5854C90.0568 67.5095 90.8616 68.7757 91.7626 70.4133C91.5307 78.4621 91.4057 86.6107 91.6376 94.6584C91.8051 100.043 91.9194 105.428 91.9806 110.815C92.022 113.923 92.2813 117.287 91.7919 120.362C91.5834 121.672 90.9559 122.694 90.0044 123.602C88.0938 125.425 85.157 126.649 82.5039 126.586C80.0124 126.526 77.685 125.356 75.9796 123.565C75.2923 122.843 74.481 121.97 73.9825 121.106C72.3103 119.417 70.5398 119.543 68.5961 116.982C67.3806 115.381 64.6987 111.345 65.0559 109.236C65.1776 108.517 65.5301 108.367 66.0786 107.956C65.7372 107.924 65.3915 107.85 65.0952 107.67C63.4118 106.645 62.275 103.634 61.842 101.826C61.0889 98.6818 61.6977 96.7274 63.34 94.0388C63.4311 93.2837 63.9626 92.6468 64.0576 91.9753C64.2479 90.6303 63.2418 88.434 63.5223 86.6316C63.8564 84.4851 65.5517 82.9226 67.2405 81.706ZM72.3657 90.907C74.6563 89.9273 77.3958 87.2648 80.0387 88.2676C80.4561 88.426 80.8499 88.7331 81.0374 89.1467C81.5351 90.2448 81.097 91.7398 80.657 92.7995C79.7216 95.0524 78.2017 96.9241 75.9441 97.9146C75.1262 97.8324 74.2218 97.7824 73.4379 97.5304C71.9805 97.0619 69.5609 95.3181 68.1836 96.3657C67.1763 97.1319 66.1566 98.4983 66.0263 99.7675C65.6897 103.048 69.422 104.849 70.4672 107.529C71.0761 109.091 70.0374 110.726 70.7533 112.238C71.5186 113.854 72.9861 115.067 73.8614 116.647C75.1989 116.886 76.5608 117.084 77.8861 117.38C78.605 117.603 79.1498 117.66 79.5581 118.353C80.0809 119.24 79.7137 120.909 79.7873 121.926C81.7731 122.277 84.2589 122.68 86.0224 121.42C86.926 120.774 87.3717 119.792 87.544 118.719C88.0486 115.574 87.4558 111.923 87.4774 108.712C86.8537 108.984 86.037 109.284 85.5556 109.771C83.4291 111.92 83.7142 114.951 79.8311 115.23C78.6557 115.315 77.1843 115.078 76.1001 114.632C75.7839 114.502 75.5714 114.269 75.4541 113.952C75.0535 112.866 75.2251 111.917 75.7173 110.888C76.4798 109.292 78.2705 109.192 79.5141 108.172C80.9693 106.978 81.7507 105.125 83.3888 104.113C83.4208 104.093 83.4522 104.073 83.4843 104.053C84.3483 103.522 86.3563 103.952 87.3565 104.096C87.8426 101.932 87.516 99.4184 87.6009 97.1906C86.4595 98.7707 85.4153 100.547 83.3029 100.872C82.7558 100.957 82.1628 100.848 81.719 100.506C81.1665 100.08 80.9057 99.3776 80.8462 98.7005C80.7392 97.4835 81.2376 96.1758 82.0489 95.2756C82.8989 94.3323 84.2106 93.5933 85.4947 93.5193C86.1565 93.4812 86.8276 93.6083 87.4901 93.6142C87.4142 90.023 88.1719 72.6175 86.2397 70.7001C85.5583 70.0239 84.547 69.9106 83.6339 69.9437C83.0938 69.9667 82.5544 70.0024 82.016 70.0507C81.1202 70.3593 80.3618 70.5983 79.9344 71.5039C79.3391 72.7654 79.2735 75.0584 77.7808 75.6189C76.3739 76.1472 73.9286 74.7726 73.1722 76.4754C72.9264 77.0287 72.9808 77.2961 73.1157 77.8604C74.5478 79.5501 80.3841 79.7345 80.227 82.3223C80.1697 83.2659 79.4218 84.4368 78.711 85.0326C78.0053 85.6242 77.1719 85.7926 76.2709 85.6847C74.1063 85.4255 71.9617 83.4349 69.9545 84.9389C68.9928 85.6596 67.6317 87.0579 67.4347 88.2699C67.3356 88.8797 67.4615 89.0384 67.8297 89.5189C69.2165 90.2321 70.8578 90.5291 72.3657 90.907Z"/><path fill="#F563D7" d="M67.2405 81.706C67.6794 80.9116 68.4382 80.2365 68.8273 79.5194C69.5561 78.1763 69.0425 76.1169 69.7064 74.653C71.053 71.6832 77.5863 66.8916 80.7702 65.9814C83.2164 65.282 86.1395 65.3247 88.3998 66.5854C90.0568 67.5095 90.8616 68.7757 91.7626 70.4133C91.5307 78.4621 91.4057 86.6107 91.6376 94.6584C91.8051 100.043 91.9194 105.428 91.9806 110.815C92.022 113.923 92.2813 117.287 91.7919 120.362C91.5834 121.672 90.9559 122.694 90.0044 123.602C88.0938 125.425 85.157 126.649 82.5039 126.586C80.0124 126.526 77.685 125.356 75.9796 123.565C75.2923 122.843 74.481 121.97 73.9825 121.106C72.3103 119.417 70.5398 119.543 68.5961 116.982C67.3806 115.381 64.6987 111.345 65.0559 109.236C65.1776 108.517 65.5301 108.367 66.0786 107.956C67.094 109.022 65.9604 110.639 67.9276 110.62C68.09 110.619 68.2423 110.599 68.4031 110.578C68.7906 113.037 71.35 116.108 73.3341 117.553C74.061 118.082 74.8352 118.046 75.6997 118.038C76.2096 118.004 76.7457 117.95 77.2561 117.976C79.4949 118.088 77.7606 121.415 79.0282 122.735C79.6603 123.393 80.6412 123.613 81.5233 123.622C84.0383 123.647 86.4785 122.763 88.2821 121.028C88.4796 119.203 88.3719 117.339 88.4075 115.505C88.5126 110.089 88.3876 104.69 88.463 99.2782C88.5091 95.9649 88.3396 92.6581 88.3746 89.3461C88.4267 84.4267 88.872 75.5207 88.0689 71.0323C87.9495 70.3645 87.7146 69.9035 87.2374 69.4273C86.4035 68.595 85.1716 68.3539 84.0325 68.3755C81.7065 68.4196 79.7376 69.1807 78.1322 70.8733C78.1353 71.2469 78.1357 71.6206 78.1334 71.9942C78.1274 73.0622 78.1373 73.5443 77.3626 74.3088C76.2689 74.7016 75.267 74.1759 74.1645 74.1437C73.6395 74.1283 73.1317 74.2661 72.7472 74.6375C71.5829 75.7621 71.6826 77.7898 71.6504 79.2747L71.3057 78.0454C71.2309 78.4814 71.2058 79.0631 71.0011 79.4501L70.5806 79.2804L70.3132 78.5542L70.3999 78.968C70.3578 78.9889 70.315 79.0084 70.2736 79.0305C69.8879 79.2368 69.6107 79.9217 69.2979 80.253C68.7622 80.8203 67.8983 81.2813 67.2405 81.706Z"/><path fill="#F548D3" d="M67.2405 81.706C67.8983 81.2813 68.7622 80.8203 69.2979 80.253C69.6107 79.9217 69.8879 79.2368 70.2736 79.0305C70.315 79.0084 70.3578 78.9889 70.3999 78.968L70.3132 78.5542L70.5806 79.2804L71.0011 79.4501C71.2058 79.0631 71.2309 78.4814 71.3057 78.0454L71.6504 79.2747C71.6839 79.305 71.7168 79.3359 71.7508 79.3656C73.8336 81.1889 77.7433 79.8744 79.2799 82.091C79.3161 82.7543 79.1768 83.0556 78.8255 83.6064C78.1219 84.0974 77.2884 83.9972 76.483 83.8592C74.714 83.5563 72.7904 82.6953 71.1823 81.908C69.124 83.371 66.3786 85.0867 65.9471 87.7947C65.7483 89.0428 66.1327 90.3809 66.8796 91.3912C66.9255 91.4533 66.9749 91.5126 67.0246 91.5716C66.6807 91.6733 66.2956 91.7495 66.0007 91.9592C65.7033 92.6181 65.3273 93.2505 65.5463 93.987C65.7681 94.2362 65.9927 94.5482 66.2987 94.6887C64.9848 96.0976 64.0142 97.7179 64.1057 99.72C64.3408 104.865 71.4445 107.139 68.6461 110.31C68.5664 110.401 68.4854 110.49 68.4031 110.578C68.2423 110.599 68.09 110.619 67.9276 110.62C65.9604 110.639 67.094 109.022 66.0786 107.956C65.7372 107.924 65.3915 107.85 65.0952 107.67C63.4118 106.645 62.275 103.634 61.842 101.826C61.0889 98.6818 61.6977 96.7274 63.34 94.0388C63.4311 93.2837 63.9626 92.6468 64.0576 91.9753C64.2479 90.6303 63.2418 88.434 63.5223 86.6316C63.8564 84.4851 65.5517 82.9226 67.2405 81.706Z"/><path fill="#F563D7" d="M67.0246 91.5716C68.7509 91.8166 74.5012 93.4946 75.645 92.9239C77.05 91.7506 76.0576 89.1946 78.7624 89.4313C79.3351 89.4814 79.5035 89.5948 79.893 90.0081C79.999 91.2288 78.359 93.7684 77.5963 94.6867C77.0112 95.3912 76.2007 95.9162 75.2751 96.0051C72.0198 96.3176 69.362 92.3831 66.2987 94.6887C65.9927 94.5482 65.7681 94.2362 65.5463 93.987C65.3273 93.2505 65.7033 92.6181 66.0007 91.9592C66.2956 91.7495 66.6807 91.6733 67.0246 91.5716Z"/><path fill="#010002" d="M70.401 98.9453C72.2333 99.2437 74.0918 99.3617 75.9259 99.6492C77.1012 99.8334 78.4659 100.287 79.1748 101.307C79.9199 102.379 79.8879 103.902 79.6163 105.128C79.4337 105.952 78.8558 106.299 78.1821 106.733C77.5899 106.867 76.9502 106.904 76.345 106.877C74.1012 106.777 71.3413 105.692 69.8443 103.968C69.2561 103.29 68.911 102.504 68.9806 101.598C69.0702 100.432 69.5225 99.6866 70.401 98.9453Z"/><path fill="#F563D7" d="M69.5169 100.428C71.5642 100.308 74.3175 101.005 76.4912 101.226C77.3715 101.316 77.7293 101.508 78.2754 102.181C78.5677 103.106 78.2764 104.071 78.0923 104.996C77.7318 105.222 77.3438 105.465 76.9135 105.52C75.2098 105.738 73.0427 104.778 71.71 103.781C70.4795 102.861 69.7448 101.992 69.5169 100.428Z"/><path fill="#F548D3" d="M81.6012 75.2383C82.1697 75.3158 82.7618 75.3885 83.3177 75.5327C84.3366 75.7971 85.0206 76.6865 85.5271 77.5578C86.6714 79.5266 87.0284 82.7463 86.3358 84.9257C86.1159 85.6175 85.814 85.8404 85.2181 86.1782C83.9578 86.2784 82.6557 86.383 81.4642 85.8962C81.1632 85.5234 81.1266 85.4199 81.0484 84.9409C80.7998 83.4183 80.5913 77.3489 81.0421 76.0123C81.1159 75.7934 81.4555 75.44 81.6012 75.2383Z"/><path fill="#F563D7" d="M83.6968 105.016C85.1607 104.95 86.4791 104.983 87.6205 106.018C87.927 106.743 87.9387 106.982 87.8611 107.762C87.2409 108.414 86.002 108.22 85.1659 108.434C83.8612 108.769 83.3511 110.94 82.7288 111.972C82.0585 113.083 81.2817 113.328 80.09 113.623C79.2918 113.648 78.4458 113.698 77.6527 113.589C76.948 113.492 76.5558 113.316 76.1255 112.775C76.126 112.192 76.3678 111.841 76.7486 111.423C77.5896 110.498 78.6345 110.61 79.7785 110.54C81.2888 109.028 82.3745 106.763 83.6968 105.016Z"/><path fill="#F563D7" d="M86.8274 94.3048C87.3227 94.3839 87.4418 94.5278 87.8079 94.8488C87.9251 95.2206 87.9758 95.532 87.8245 95.9034C87.4165 96.9049 84.2425 99.4608 83.2723 99.8006C83.1428 99.7588 83.0121 99.7166 82.886 99.6652C82.1811 99.3775 82.1011 99.0665 81.8133 98.4316C81.8391 98.0034 81.8953 97.6063 82.1198 97.2316C83.1242 95.5545 85.0158 94.7296 86.8274 94.3048Z"/><path fill="#F563D7" d="M100.363 65.0753C100.97 65.0305 101.579 65.0184 102.188 65.0391C106.578 65.1766 110.667 68.7221 113.533 71.7925C114.767 73.1153 116.65 75.6046 116.998 77.385C117.159 78.21 117.024 79.2631 116.993 80.1081C117.526 81.1521 118.895 81.9214 119.757 82.7136C122.27 85.0249 122.351 88.0446 122.2 91.2038C122.168 91.8756 122.018 92.8492 122.201 93.4936C122.794 95.5834 124.492 96.0208 124.602 99.5646C124.709 103.021 122.983 106.047 120.682 108.493C120.403 110.292 119.94 112.126 119.277 113.821C117.787 117.63 115.442 119.32 111.828 120.901C109.259 122.842 107.533 125.993 104.248 126.961C102.284 127.54 99.1953 127.252 97.4126 126.232C96.0583 125.457 94.473 123.524 94.1243 121.992C93.5972 119.675 93.9799 116.569 94.0042 114.156L94.0892 100.171C94.0813 92.0645 93.5403 83.9261 93.8044 75.8274C93.8714 73.7729 93.5615 70.3868 94.679 68.6723C96.1533 66.4104 97.89 65.7703 100.363 65.0753ZM97.562 93.6532C99.7135 94.3244 102.809 95.132 103.963 97.2534C104.282 97.8391 104.448 98.5224 104.243 99.1746C104.098 99.6351 103.746 100.136 103.293 100.338C102.927 100.501 102.533 100.561 102.168 100.394C100.358 99.5689 98.6403 97.1759 97.1935 95.7825C97.6901 100.747 97.5397 106.084 97.3773 111.074C97.2789 114.1 96.9595 117.251 97.3751 120.256C97.5004 121.162 97.6563 121.922 98.393 122.533C99.6463 123.571 101.657 123.67 103.216 123.484C104.555 123.323 106.236 122.848 107.108 121.766C107.463 121.325 107.56 120.928 107.538 120.371C107.032 119.437 106.477 118.504 106.018 117.546C108.314 117.655 110.465 117.675 112.742 117.275C115.015 115.589 116.187 113.385 117.225 110.788C116.404 109.834 115.229 108.784 115.345 107.421C115.359 107.267 115.386 107.118 115.414 106.967C116.828 106.077 118.501 105.768 119.943 104.816C120.125 104.381 120.29 103.938 120.437 103.49C121.091 101.451 121.375 98.763 120.34 96.8113C119.341 94.9289 117.236 93.8852 115.266 93.3005C115.198 92.9456 115.213 92.5704 115.204 92.2091C116.029 91.8677 117.049 91.5198 117.739 90.9532C118.387 90.4222 118.905 89.5917 118.971 88.7449C119.195 85.8666 115.495 83.3972 113.827 81.4568C112.345 82.433 110.36 84.0713 108.706 84.6336C108.223 84.7977 107.694 84.7298 107.243 84.501C106.644 84.1972 106.044 83.5964 105.87 82.9313C105.749 82.4727 105.789 82.0438 106.047 81.6446C107.018 80.1435 111.947 79.4472 113.625 79.05C113.189 77.8664 112.955 76.8058 112.83 75.5515C112.525 75.1714 112.206 74.7345 111.843 74.409C111.214 73.845 110.487 74.1812 109.741 74.2339C107.107 74.4196 106.287 70.2448 104.632 68.8474L104.531 68.7633C103.815 68.5986 103.089 68.4253 102.361 68.3251C101.211 68.1671 99.8327 68.3288 98.8971 69.0664C96.3597 71.0666 98.1392 78.1227 97.7293 81.2522C97.5372 81.8354 97.3717 82.4144 97.6879 82.9978C97.701 83.0219 97.719 83.0431 97.7346 83.0658C98.0993 84.9674 97.4921 87.3208 97.396 89.2797C97.3248 90.7299 97.4611 92.2059 97.562 93.6532Z"/><path fill="#010002" d="M97.7293 81.2522C98.1392 78.1227 96.3597 71.0666 98.8971 69.0664C99.8327 68.3288 101.211 68.1671 102.361 68.3251C103.089 68.4253 103.815 68.5986 104.531 68.7633L104.632 68.8474C106.287 70.2448 107.107 74.4196 109.741 74.2339C110.487 74.1812 111.214 73.845 111.843 74.409C112.206 74.7345 112.525 75.1714 112.83 75.5515C112.955 76.8058 113.189 77.8664 113.625 79.05C111.947 79.4472 107.018 80.1435 106.047 81.6446C105.789 82.0438 105.749 82.4727 105.87 82.9313C106.044 83.5964 106.644 84.1972 107.243 84.501C107.694 84.7298 108.223 84.7977 108.706 84.6336C110.36 84.0713 112.345 82.433 113.827 81.4568C115.495 83.3972 119.195 85.8666 118.971 88.7449C118.905 89.5917 118.387 90.4222 117.739 90.9532C117.049 91.5198 116.029 91.8677 115.204 92.2091C115.213 92.5704 115.198 92.9456 115.266 93.3005C117.236 93.8852 119.341 94.9289 120.34 96.8113C121.375 98.763 121.091 101.451 120.437 103.49C120.29 103.938 120.125 104.381 119.943 104.816C118.501 105.768 116.828 106.077 115.414 106.967C115.386 107.118 115.359 107.267 115.345 107.421C115.229 108.784 116.404 109.834 117.225 110.788C116.187 113.385 115.015 115.589 112.742 117.275C110.465 117.675 108.314 117.655 106.018 117.546C106.477 118.504 107.032 119.437 107.538 120.371C107.56 120.928 107.463 121.325 107.108 121.766C106.236 122.848 104.555 123.323 103.216 123.484C101.657 123.67 99.6463 123.571 98.393 122.533C97.6563 121.922 97.5004 121.162 97.3751 120.256C96.9595 117.251 97.2789 114.1 97.3773 111.074C97.5397 106.084 97.6901 100.747 97.1935 95.7825C98.6403 97.1759 100.358 99.5689 102.168 100.394C102.533 100.561 102.927 100.501 103.293 100.338C103.746 100.136 104.098 99.6351 104.243 99.1746C104.448 98.5224 104.282 97.8391 103.963 97.2534C102.809 95.132 99.7135 94.3244 97.562 93.6532C97.4611 92.2059 97.3248 90.7299 97.396 89.2797C97.4921 87.3208 98.0993 84.9674 97.7346 83.0658C97.719 83.0431 97.701 83.0219 97.6879 82.9978C97.3717 82.4144 97.5372 81.8354 97.7293 81.2522ZM105.149 85.0014C105.111 85.0444 105.073 85.0878 105.035 85.1303C104.552 85.6599 103.886 85.9767 103.155 85.959C101.692 85.9235 100.771 84.0919 99.22 84.6533C98.2184 85.9945 98.2799 89.4674 98.5072 91.0854C98.5843 91.6338 98.7767 92.3423 99.2357 92.7009C101.36 94.3607 104.577 93.1901 105.438 97.961C105.609 98.9077 105.56 100.003 104.999 100.82C104.625 101.366 104.045 101.694 103.396 101.789C102.418 101.934 101.165 101.678 100.37 101.079C99.264 100.246 98.8682 98.7609 98.2122 97.5973C98.2941 99.6157 98.3537 101.635 98.3907 103.654L98.7135 103.865C99.4835 103.653 100.504 103.273 101.241 103.732C102.379 104.439 107.372 109.281 108.145 110.343C108.41 110.707 108.554 111.126 108.629 111.567C108.748 112.273 108.57 112.956 108.151 113.533C107.459 114.486 106.236 114.993 105.098 115.143C104.32 115.246 103.656 115.157 102.911 114.927C101.398 113.605 101.096 109.483 99.2644 108.981L98.6764 109.215C98.0586 111.495 98.0523 118.618 99.1903 120.65C99.3443 120.925 99.5266 121.148 99.7425 121.375C99.7678 121.402 99.7923 121.429 99.8179 121.456C100.55 122.211 102.528 122.27 103.542 122.264C104.406 122.259 104.989 122.159 105.605 121.525C107.327 119.753 104.38 116.667 108.571 116.536C109.959 116.493 111.414 116.653 112.786 116.459C113.759 115.23 116.217 112.739 116.016 111.119C115.828 109.602 114.783 108.546 115.176 106.911C115.193 106.824 115.203 106.768 115.23 106.68C115.588 105.529 117.384 105.398 118.338 104.887C119.184 104.433 119.783 103.434 120.056 102.541C120.556 100.903 120.248 99.096 119.409 97.6239C118.51 96.0462 117.325 95.6694 115.678 95.2292C114.588 96.4135 113.293 97.7387 111.704 98.1931C110.947 98.4097 110.217 98.3868 109.532 97.9726C108.408 97.2929 108.149 96.1829 107.855 95.0001C106.362 94.0375 104.442 93.0478 103.236 91.7459C102.362 90.8024 102.185 89.9336 102.259 88.6711C102.308 87.8402 102.56 87.431 103.163 86.9096C105.949 86.1554 107.44 88.8107 109.692 89.5758C110.687 89.914 111.825 89.4829 112.845 89.6238C113.711 89.7434 114.623 90.2506 115.457 90.5273C116.15 90.757 116.565 90.6021 117.176 90.2866C117.633 89.6503 117.828 88.8697 117.751 88.0855C117.551 86.0709 114.762 84.2229 113.274 83.06L110.053 85.3062C108.647 85.4296 107.118 85.5344 105.803 84.9269C105.541 84.8057 105.415 84.9155 105.149 85.0014ZM103.627 81.1584C105.494 81.2151 110.461 79.2311 111.817 77.9429C112.136 77.6394 112.269 77.334 112.364 76.908C112.041 76.1828 111.669 75.8451 110.899 75.5411C110.134 75.2386 109.331 75.1916 108.518 75.146C105.817 73.3511 105.251 69.6052 101.601 69.2887C100.582 69.5575 99.5805 69.7549 99.032 70.7593C98.2109 72.2629 98.8343 74.478 98.7639 76.1401C98.73 76.9383 98.5348 77.681 98.5413 78.4955L98.8188 78.7424C99.9851 77.7434 99.9624 74.0433 102.657 74.2752C103.139 74.3166 103.585 74.6152 103.886 74.9916C104.329 75.5465 104.564 76.0529 104.46 76.7669C104.271 78.0756 102.887 79.9789 103.627 81.1584Z"/><path fill="#F548D3" d="M113.481 100.365C113.672 100.339 113.831 100.317 114.021 100.368C114.605 100.525 114.677 100.627 114.993 101.154C115.013 101.466 115.021 101.791 114.928 102.092C114.569 103.25 113.185 104.444 112.157 104.983C110.851 105.668 109.753 105.91 108.319 105.457C107.786 105.177 107.274 104.765 106.838 104.353C106.277 103.824 106.208 103.402 106.192 102.676C106.454 101.791 107.33 101.358 108.057 100.876C109.862 100.797 111.672 100.493 113.481 100.365Z"/><path fill="#2D0025" d="M100.956 82.3288L101.773 81.4143L101.926 81.465C102.594 81.6834 104.062 81.6261 104.403 82.3187C104.781 83.0862 104.897 83.9885 105.062 84.8228L105.149 85.0014C105.111 85.0444 105.073 85.0878 105.035 85.1303C104.552 85.6599 103.886 85.9767 103.155 85.959C101.692 85.9235 100.771 84.0919 99.22 84.6533C98.2184 85.9945 98.2799 89.4674 98.5072 91.0854C98.5843 91.6338 98.7767 92.3423 99.2357 92.7009C101.36 94.3607 104.577 93.1901 105.438 97.961C105.609 98.9077 105.56 100.003 104.999 100.82C104.625 101.366 104.045 101.694 103.396 101.789C102.418 101.934 101.165 101.678 100.37 101.079C99.264 100.246 98.8682 98.7609 98.2122 97.5973C98.2941 99.6157 98.3537 101.635 98.3907 103.654L98.7135 103.865C99.4835 103.653 100.504 103.273 101.241 103.732C102.379 104.439 107.372 109.281 108.145 110.343C108.41 110.707 108.554 111.126 108.629 111.567C108.748 112.273 108.57 112.956 108.151 113.533C107.459 114.486 106.236 114.993 105.098 115.143C104.32 115.246 103.656 115.157 102.911 114.927C101.398 113.605 101.096 109.483 99.2644 108.981L98.6764 109.215C98.0586 111.495 98.0523 118.618 99.1903 120.65C99.3443 120.925 99.5266 121.148 99.7425 121.375C99.7678 121.402 99.7923 121.429 99.8179 121.456C100.55 122.211 102.528 122.27 103.542 122.264C104.406 122.259 104.989 122.159 105.605 121.525C107.327 119.753 104.38 116.667 108.571 116.536C109.959 116.493 111.414 116.653 112.786 116.459C113.759 115.23 116.217 112.739 116.016 111.119C115.828 109.602 114.783 108.546 115.176 106.911L115.414 106.967C115.386 107.118 115.359 107.267 115.345 107.421C115.229 108.784 116.404 109.834 117.225 110.788C116.187 113.385 115.015 115.589 112.742 117.275C110.465 117.675 108.314 117.655 106.018 117.546C106.477 118.504 107.032 119.437 107.538 120.371C107.56 120.928 107.463 121.325 107.108 121.766C106.236 122.848 104.555 123.323 103.216 123.484C101.657 123.67 99.6463 123.571 98.393 122.533C97.6563 121.922 97.5004 121.162 97.3751 120.256C96.9595 117.251 97.2789 114.1 97.3773 111.074C97.5397 106.084 97.6901 100.747 97.1935 95.7825C98.6403 97.1759 100.358 99.5689 102.168 100.394C102.533 100.561 102.927 100.501 103.293 100.338C103.746 100.136 104.098 99.6351 104.243 99.1746C104.448 98.5224 104.282 97.8391 103.963 97.2534C102.809 95.132 99.7135 94.3244 97.562 93.6532C97.4611 92.2059 97.3248 90.7299 97.396 89.2797C97.4921 87.3208 98.0993 84.9674 97.7346 83.0658C99.1558 83.2988 99.7691 83.0892 100.956 82.3288Z"/><path fill="#F548D3" d="M100.956 82.3288L101.773 81.4143L101.926 81.465C102.594 81.6834 104.062 81.6261 104.403 82.3187C104.781 83.0862 104.897 83.9885 105.062 84.8228C104.319 85.0957 103.258 85.2799 102.514 84.9529C101.681 84.5865 101.266 83.1211 100.956 82.3288Z"/><path fill="#F548D3" d="M102.739 112.041C102.736 112 102.735 111.96 102.731 111.919C102.514 109.661 100.369 108.897 98.9168 107.611C98.4099 107.162 98.1715 106.738 98.1219 106.063C98.2962 105.45 98.5177 105.203 98.9966 104.797C102.627 103.951 103.469 109.612 106.349 110.255C106.409 110.268 106.47 110.279 106.531 110.291C107.164 110.473 107.653 110.606 108.132 111.077C108.237 111.555 108.254 111.721 107.975 112.148C107.396 113.033 105.642 113.665 104.637 113.83C104.123 113.915 103.644 113.876 103.135 113.789C102.576 113.37 102.61 113.295 102.516 112.64L102.739 112.041Z"/><path fill="#F563D7" d="M106.531 110.291C107.164 110.473 107.653 110.606 108.132 111.077C108.237 111.555 108.254 111.721 107.975 112.148C107.396 113.033 105.642 113.665 104.637 113.83C104.123 113.915 103.644 113.876 103.135 113.789C102.576 113.37 102.61 113.295 102.516 112.64L102.739 112.041C102.925 111.605 103.185 111.262 103.525 110.934C104.353 110.132 105.458 110.284 106.531 110.291Z"/><path fill="#F548D3" d="M109.24 95.0064C108.78 92.7322 103.764 92.0948 103.12 89.7001C102.952 89.0747 103.092 88.6278 103.407 88.0973C104.172 87.8771 104.645 87.9512 105.371 88.3021C106.759 88.9727 111.205 91.6469 111.708 93.0657C111.228 94.1029 110.207 94.5202 109.24 95.0064Z"/><path fill="#F548D3" d="M97.7293 81.2522C97.772 81.2257 97.8153 81.2002 97.8573 81.1727C99.6746 79.982 100.475 74.7022 103 74.6602C103.556 75.055 103.574 75.2694 103.813 75.8925C103.721 77.7406 102.427 79.6788 101.773 81.4143L100.956 82.3288C99.7691 83.0892 99.1558 83.2988 97.7346 83.0658C97.719 83.0431 97.701 83.0219 97.6879 82.9978C97.3717 82.4144 97.5372 81.8354 97.7293 81.2522Z"/><path fill="#F563D7" d="M111.708 93.0657C111.632 92.2516 111.492 91.9456 111.925 91.2334C112.467 90.9239 112.723 90.7498 113.368 90.8448C114.227 90.9711 114.718 91.5487 115.204 92.2091C115.213 92.5704 115.198 92.9456 115.266 93.3005C114.47 94.8612 112.995 96.6796 111.283 97.2743C110.924 97.3992 110.55 97.3653 110.181 97.315C109.632 96.893 109.375 96.5868 109.232 95.8685C109.178 95.5948 109.213 95.2823 109.24 95.0064C110.207 94.5202 111.228 94.1029 111.708 93.0657Z"/><defs><linearGradient id="gradient_0" gradientUnits="userSpaceOnUse" x1="105.08875" y1="98.612686" x2="130.48718" y2="138.78955"><stop offset="0" stop-color="#010010" stop-opacity="0.98039216"/><stop offset="1" stop-color="#340832"/></linearGradient></defs><path fill="url(#gradient_0)" d="M147.14 69.8476C148.257 77.3773 147.727 88.3811 147.736 96.2427C147.746 105.177 148.206 114.423 147.597 123.328C147.492 124.869 147.516 127.143 146.569 128.39C145.317 130.04 143.483 131.441 141.793 132.61C136.061 136.575 129.734 139.853 123.793 143.518C118.567 146.757 113.325 149.969 108.067 153.155C105.406 154.785 102.797 156.602 100.039 158.058C98.3717 158.937 96.1831 159.994 94.2839 160.178C89.6621 160.626 83.568 156.05 80.0082 153.35C80.7219 153.54 81.4135 153.779 82.1565 153.628C82.6424 153.05 82.5858 152.83 82.6456 152.095C86.0036 154.123 89.8382 156.775 93.9121 156.756C95.8422 156.747 98.0316 155.641 99.718 154.777C105.239 151.951 110.415 148.331 115.722 145.123L131.23 135.719C135.143 133.348 139.971 130.986 143.187 127.707C143.921 126.959 144.449 126.375 144.649 125.308C145.561 120.423 145.041 113.315 145.052 108.219C145.11 96.4151 145.093 84.6108 145 72.807C145.373 73.0512 145.415 73.1001 145.855 73.0755C146.493 72.4199 146.744 70.7643 147.14 69.8476Z"/><defs><linearGradient id="gradient_1" gradientUnits="userSpaceOnUse" x1="66.798332" y1="117.53107" x2="53.627586" y2="137.19588"><stop offset="0" stop-color="#020003" stop-opacity="0.79607844"/><stop offset="1" stop-color="#010001"/></linearGradient></defs><path fill="url(#gradient_1)" d="M40.7037 81.7543C40.6541 78.8543 40.3412 75.4546 40.9612 72.6225C41.2038 81.39 40.9941 90.2333 40.9444 99.0082C40.9258 102.282 40.7604 105.605 40.9022 108.875C40.997 111.059 41.4061 113.212 41.579 115.388C41.6593 116.398 41.4114 118.118 41.9117 118.929C41.926 122.293 41.6121 125.349 44.2176 127.911C47.81 131.445 52.8638 133.9 57.1602 136.51C65.6505 141.667 74.3699 146.61 82.6456 152.095C82.5858 152.83 82.6424 153.05 82.1565 153.628C81.4135 153.779 80.7219 153.54 80.0082 153.35C78.4295 152.645 76.8404 151.459 75.3554 150.55L65.5292 144.541C62.2241 142.503 58.8912 140.51 55.5314 138.563C51.1828 136.044 45.8506 133.583 42.337 129.985C41.0112 128.628 39.8982 126.939 39.5081 125.06C38.6753 121.048 39.3312 112.245 39.3718 107.807L39.4681 78.3641C39.6786 77.8095 39.9849 77.2689 40.2507 76.7371C40.6739 82.7062 40.3672 88.8558 40.3664 94.8397C40.366 97.2232 40.1324 100.093 40.6473 102.423C40.7251 99.0129 41.3038 84.0211 40.7037 81.7543Z"/><path fill="#010002" fill-opacity="0.015686275" d="M40.46 70.7371C40.9934 69.26 41.6194 67.6598 42.8506 66.6149C45.7495 64.1547 49.3802 62.2567 52.6343 60.3013L68.6988 50.6312C75.1047 46.6896 82.5982 40.9628 89.1591 37.8823C92.0861 36.508 94.2661 36.3602 97.3324 37.4746C101.555 39.0095 105.581 41.9418 109.37 44.3293C113.912 47.1854 118.471 50.0154 123.046 52.8191C129.323 56.6609 136.979 60.4491 142.645 64.9374C144.047 66.0479 144.887 67.4213 145.637 69.0193C138.28 62.0336 126.318 56.1556 117.455 50.7277C111.615 47.1512 105.82 42.9328 99.7273 39.848C97.8959 38.9207 95.3481 37.7061 93.2534 37.7843C91.6999 37.8423 90.1114 38.4556 88.745 39.1637C81.1437 43.1024 73.9147 48.2571 66.6356 52.7934C61.5669 55.9521 46.7125 64.1594 43.3445 67.8575C42.0886 69.2364 41.2108 70.7403 40.9612 72.6225C40.3412 75.4546 40.6541 78.8543 40.7037 81.7543C40.2853 78.2263 40.5509 74.3048 40.46 70.7371Z"/><path fill="#010002" fill-opacity="0.53333336" d="M40.46 70.7371C40.5509 74.3048 40.2853 78.2263 40.7037 81.7543C41.3038 84.0211 40.7251 99.0129 40.6473 102.423C40.1324 100.093 40.366 97.2232 40.3664 94.8397C40.3672 88.8558 40.6739 82.7062 40.2507 76.7371C40.2125 74.8062 40.065 72.6285 40.46 70.7371Z"/></svg>