<?xml version="1.0" encoding="utf-8" ?><svg xmlns="http://www.w3.org/2000/svg" xmlns:xlink="http://www.w3.org/1999/xlink" width="135" height="128" viewBox="0 0 135 128"><path fill="#251D3E" d="M0 0L135 0L135 128L0 128L0 0Z"/><path fill="#EFBCF8" d="M66.2945 6.31564C66.3269 6.31095 66.3593 6.30586 66.3919 6.30156C68.747 5.99001 71.2074 6.47552 73.3783 7.37794C77.6522 9.1546 81.6972 11.9396 85.6792 14.299C90.84 17.3568 96.0796 20.2889 101.268 23.3005C106.28 26.2095 113.59 29.6405 117.939 33.0451C119.47 34.2434 121.321 36.1362 121.557 38.1294C121.993 41.8159 121.777 45.6282 121.767 49.3393L121.799 65.9573C121.811 70.6093 121.868 75.2611 121.968 79.912C122.002 82.5356 122.161 85.2697 121.923 87.8837C121.795 89.2783 121.321 91.0878 120.429 92.2008C119.195 93.7415 117.536 95.059 115.904 96.1526C109.189 100.652 101.253 104.593 94.1763 108.633C87.5145 112.437 80.571 117.035 73.647 120.253C72.1171 120.964 70.6922 121.415 69.0018 121.595C66.4488 121.727 64.2406 121.278 61.8955 120.278C58.425 118.798 55.0907 116.601 51.8252 114.706L35.7427 105.449C30.5812 102.505 22.6533 98.8193 18.1489 95.4679C15.3961 93.4197 13.5802 91.0036 13.0828 87.5229C12.7366 85.1012 12.9367 82.5355 12.9682 80.0927C13.0259 76.3492 13.0516 72.6053 13.0453 68.8613L12.9863 50.4527C12.9738 47.0527 12.719 43.4182 13.1503 40.0521C13.3708 38.3316 13.9664 36.9062 15.0223 35.5197C16.1173 34.0819 17.5351 32.9811 19.0342 31.9972C22.242 29.8917 25.7291 28.1561 29.0804 26.2855L42.6832 18.5324C48.7763 15.0866 54.7134 11.1077 61.0027 8.04739C62.7455 7.19938 64.3618 6.58434 66.2945 6.31564Z"/><path fill="#251D3E" d="M66.1468 8.53973C68.1108 8.44327 69.9962 8.51934 71.8549 9.2319C75.9825 10.8143 83.8811 15.9492 88.028 18.3935C95.8615 23.0107 103.825 27.3971 111.703 31.9339C114.576 33.588 118.378 35.7756 119.277 39.2178C120.211 42.7956 119.532 54.6418 119.538 59.308C119.551 68.1904 120.032 77.2874 119.563 86.1472C119.499 87.3446 119.38 89.3989 118.732 90.4072C117.796 91.8667 115.861 93.2481 114.431 94.2074C108.466 98.2106 101.755 101.554 95.5055 105.122L83.0626 112.228C78.6523 114.766 73.9685 118.184 68.9822 119.344C67.0959 119.336 65.2964 119.185 63.5271 118.453C58.4022 116.333 52.6071 112.371 47.6758 109.532C39.0888 104.589 30.3731 99.8472 21.8103 94.8707C19.3804 93.4585 16.4335 91.3948 15.7039 88.5376C14.7506 84.8043 15.495 72.6384 15.491 68.0545L15.4406 50.9467C15.4292 47.8202 15.2776 44.6205 15.4844 41.5029C15.5722 40.1799 15.7776 38.6813 16.4798 37.5316C17.2483 36.2735 18.3542 35.1859 19.5702 34.3621C22.2495 32.5469 25.2462 31.12 28.0685 29.5408L42.9761 21.1154C49.639 17.3776 56.1211 13.0786 62.9432 9.64803C63.9795 9.12696 65.0234 8.80698 66.1468 8.53973Z"/><path fill="#EFBCF8" d="M65.6728 11.5297C66.5963 11.4856 67.56 11.4171 68.4807 11.5126C69.8424 11.6538 71.1831 12.1117 72.4103 12.7088C78.6407 15.7396 84.6356 19.7797 90.6515 23.2379C98.0057 27.4654 105.734 31.3397 112.799 36.0319C113.684 36.6195 114.507 37.3067 115.172 38.1399C115.882 39.0314 116.256 39.8919 116.388 41.024C116.667 43.4069 116.523 45.9285 116.522 48.3296L116.51 60.6315L116.513 76.9073C116.51 80.7858 116.622 84.7091 116.183 88.5686C115.35 89.8741 114.422 90.7369 113.158 91.6099C109.146 94.3808 104.722 96.67 100.468 99.0543L87.2544 106.596C82.3948 109.319 77.7111 112.491 72.7581 115.01C71.6871 115.555 70.6315 115.952 69.4638 116.242C67.2832 116.427 65.2628 116.235 63.2634 115.289C56.7696 112.216 49.1725 107.159 42.7972 103.496L30.1641 96.331C27.6448 94.9055 25.0148 93.5579 22.6443 91.8958C21.3365 90.9789 19.4751 89.5843 18.9444 88.0513C18.1581 85.7799 18.3207 48.2224 18.5718 43.0943C18.6249 42.0097 18.6719 40.2856 19.1783 39.3366C19.935 37.9185 21.7907 36.624 23.1154 35.732C29.1882 31.643 35.9109 28.3662 42.243 24.6887L55.0315 17.2753C58.4228 15.2818 61.9183 12.7528 65.6728 11.5297Z"/><path fill="#251D3E" d="M66.2161 13.7761C67.0798 13.7231 67.9254 13.6937 68.7787 13.8641C70.0208 14.1121 71.1542 14.6205 72.2772 15.1889C78.9221 18.5528 85.3282 22.6745 91.8054 26.3718C98.2589 30.0556 105.218 33.4833 111.305 37.7203C112.472 38.5327 113.357 39.3027 114.154 40.5003C114.672 46.6156 114.363 53.0311 114.39 59.1752C114.431 68.657 114.657 78.177 114.178 87.6493C113.064 88.9833 111.714 89.9285 110.27 90.8686C102.093 96.1926 93.219 100.686 84.715 105.469C80.1106 108.059 73.4379 113.147 68.5343 114.194C68.3797 114.187 68.2253 114.178 68.0709 114.167C66.1404 114.032 64.4894 113.25 62.7759 112.411C58.1538 110.149 53.8603 107.141 49.3609 104.635L34.3477 96.1906C31.2352 94.4412 28.0087 92.7939 25.0237 90.8329C23.4691 89.8116 22.1734 88.7976 20.9493 87.3914C20.2457 84.0695 20.5886 80.1597 20.5975 76.7663L20.663 59.54C20.6793 53.2132 20.1088 46.5479 20.7974 40.2828C22.1623 38.731 23.9302 37.6351 25.6644 36.5468C33.5699 31.5862 42.0226 27.2655 50.1492 22.6493C54.4628 20.1991 61.7863 15.0317 66.2161 13.7761Z"/><path fill="#EFBCF8" d="M46.768 41.2849C54.2912 40.9857 61.9109 41.2361 69.444 41.2341C75.7895 41.2324 82.2432 40.9322 88.5722 41.269C89.8298 41.3359 91.6985 41.3984 92.8044 42C94.0179 42.6602 95.3163 43.9199 95.6881 45.2866C96.3956 47.8874 96.2078 78.8558 95.965 82.7871C95.8987 83.8605 95.835 84.9088 95.2757 85.8549C94.4111 87.3174 92.8135 88.2779 91.2062 88.6926C87.8313 89.1357 84.3056 88.9973 80.9039 88.9972L66.2064 88.9888C60.8268 88.9874 51.99 89.5169 46.9233 88.7968C44.6986 88.4805 43.3677 86.9962 42.0858 85.2901C41.4645 81.9011 41.4841 47.9944 42.1654 44.7043C43.4294 42.9951 44.8 42.0437 46.768 41.2849Z"/><path fill="#251D3E" d="M46.9597 43.8014C51.4068 43.4259 88.8342 43.2941 91.0212 44.1937C91.871 44.5432 92.7005 44.9796 93.0654 45.8728C93.3827 46.6494 93.4583 47.594 93.4947 48.4243C93.7306 53.8028 93.4005 59.2788 93.4119 64.6675C93.4236 70.2068 93.7747 75.8402 93.5231 81.3674C93.4759 82.4039 93.3724 83.5842 92.9606 84.5446C92.5533 85.4943 91.9114 85.8824 90.9928 86.242C85.4132 86.9566 78.1182 86.4736 72.3997 86.4825C64.8327 86.4941 56.9868 86.9197 49.4428 86.4277C48.2329 86.3488 46.4437 86.2828 45.4388 85.5945C44.7943 84.3583 44.5872 82.7911 44.4851 81.4116C44.1891 77.4107 44.0924 47.2077 44.5946 45.7541C44.9496 44.7263 46.0658 44.2572 46.9597 43.8014Z"/><path fill="#EFBCF8" d="M61.8692 51.8182L65.827 51.7389C67.5393 56.3211 69.5233 60.8091 71.3866 65.3317C73.0399 69.3443 74.5745 73.4536 76.4271 77.3775L72.8193 77.6596C71.5514 75.2691 70.536 72.6265 69.6285 70.0815C68.5349 70.1903 67.4115 70.1613 66.3125 70.1792C63.7246 70.1779 61.1116 70.2472 58.5361 69.9644C57.8437 72.0865 57.0763 75.4319 55.4977 77.0136C55.0379 77.4743 54.4546 77.8016 53.7844 77.7758C53.2454 77.7551 52.5257 77.5511 52.1552 77.15C51.9195 75.2805 60.5766 54.7962 61.8692 51.8182Z"/><path fill="#251D3E" d="M63.8433 55.1892C64.3833 55.5548 67.8939 65.5032 68.7446 67.0996C67.6066 67.0573 66.452 67.1076 65.3125 67.1173C63.311 67.084 61.3089 67.0353 59.3076 67.1002C61.2068 63.5599 62.8515 59.0748 63.8433 55.1892Z"/><path fill="#EFBCF8" d="M80.4175 52.4866L83.732 52.4563C83.7672 60.6901 83.9689 68.9411 83.8623 77.1729C82.8055 77.3457 81.6177 77.2462 80.5441 77.2486C80.564 68.9944 80.5218 60.7402 80.4175 52.4866Z"/></svg>